<svg xmlns="http://www.w3.org/2000/svg" width="147.966" height="31.738" viewBox="48 38 147.966 31.738"><g data-name="Groupe 7"><g data-name="Groupe 6"><g data-name="Groupe 2"><path d="M111.394 46.828v22.318h-5.01v-2.55c-1.549 2.095-3.872 3.142-6.969 3.142-2.733 0-4.85-.774-6.354-2.322-1.503-1.55-2.255-3.81-2.255-6.787V46.828h5.01v12.799c0 2.004.418 3.477 1.253 4.418.835.942 2.088 1.412 3.758 1.412 1.791 0 3.166-.516 4.122-1.548s1.435-2.536 1.435-4.51V46.828h5.01Z" fill-rule="evenodd" data-name="Tracé 1"/><path d="M126.456 46.782v4.464c-.668-.152-1.427-.227-2.277-.227-1.944 0-3.41.584-4.395 1.753-.987 1.17-1.48 2.862-1.48 5.079v11.295h-5.057V46.828h5.01v2.596c1.306-1.943 3.28-2.915 5.922-2.915.88 0 1.64.091 2.277.273Z" fill-rule="evenodd" data-name="Tracé 2"/><path d="M151.051 57.972c0 1.123-.106 2.209-.318 3.256a13.783 13.783 0 0 1-.911 2.893c-.79 1.76-1.96 3.127-3.508 4.099-1.548.971-3.416 1.457-5.602 1.457-1.61 0-3.045-.273-4.304-.82a7.966 7.966 0 0 1-3.166-2.46v2.734h-4.919V39.844L133.38 38v11.363a8.157 8.157 0 0 1 3.143-2.346c1.244-.53 2.641-.797 4.19-.797 2.186 0 4.054.486 5.602 1.458 1.549.972 2.718 2.338 3.508 4.099.82 1.822 1.23 3.887 1.23 6.195Zm-5.374 0c0-1.7-.243-3.128-.729-4.282-.486-1.062-1.2-1.86-2.14-2.391-.942-.531-2.066-.797-3.371-.797-1.883 0-3.37.6-4.464 1.799-1.093 1.2-1.64 2.892-1.64 5.078v1.139c0 2.217.547 3.925 1.64 5.124 1.093 1.2 2.58 1.8 4.464 1.8 1.305 0 2.429-.274 3.37-.82.941-.547 1.655-1.351 2.141-2.415.486-1.153.729-2.565.729-4.235Z" fill-rule="evenodd" data-name="Tracé 3"/><path d="M173.367 56.074v13.072h-5.056v-2.505c-1.61 2.035-4.16 3.052-7.652 3.052-1.974 0-3.644-.319-5.01-.957-1.367-.637-2.323-1.578-2.87-2.824-.395-.88-.592-1.882-.592-3.006 0-1.123.182-2.095.547-2.915.758-1.67 2.05-2.816 3.871-3.439 1.822-.622 4.175-.933 7.06-.933h4.646v-.593c0-.576-.03-1.054-.091-1.434a4.467 4.467 0 0 0-.364-1.162c-.669-1.457-2.217-2.186-4.646-2.186-1.246 0-2.263.167-3.052.501-.79.335-1.352.865-1.685 1.594-.213.547-.32 1.048-.32 1.503h-5.1c0-1.275.212-2.353.637-3.233 1.306-2.916 4.464-4.373 9.474-4.373 2.46 0 4.456.364 5.99 1.093 1.533.729 2.634 1.868 3.302 3.416.607 1.337.911 3.113.911 5.329Zm-5.056 3.462v-.273h-4.327c-1.67 0-3.052.136-4.145.41-1.093.273-1.807.774-2.14 1.502-.183.365-.274.79-.274 1.276s.091.941.273 1.366c.304.638.835 1.11 1.595 1.412.759.304 1.654.456 2.687.456 1.457 0 2.672-.258 3.644-.775a4.724 4.724 0 0 0 2.14-2.277c.365-.88.547-1.913.547-3.097Z" fill-rule="evenodd" data-name="Tracé 4"/><path d="m189.453 69.146-9.019-10.612v10.612h-5.056V40.577l5.056-1.87v16.32l8.016-8.2h6.468l-9.884 9.93 10.932 12.39h-6.513Z" fill-rule="evenodd" data-name="Tracé 5"/></g><g data-name="Groupe 5"><g data-name="Groupe 3"><path d="M82.999 53.096c-1.606-1.585-3.774-2.38-6.508-2.38H64.328l1.768 4.757h10.395c1.248 0 2.279.387 3.09 1.158.814.773 1.219 1.725 1.219 2.854 0 1.128-.405 2.08-1.219 2.854-.811.77-1.842 1.157-3.09 1.157h-7.413l1.767 4.756h5.646c2.734 0 4.902-.792 6.508-2.378 1.606-1.585 2.408-3.715 2.408-6.389 0-2.675-.802-4.805-2.408-6.39Z" fill-rule="evenodd" data-name="Tracé 6"/></g><g data-name="Groupe 4"><path d="M67.31 58.742H56.916c-1.247 0-2.278-.387-3.09-1.158-.813-.773-1.218-1.725-1.218-2.855 0-1.128.405-2.08 1.218-2.853.812-.77 1.843-1.159 3.09-1.159h7.413l-1.766-4.754h-5.647c-2.733 0-4.901.791-6.508 2.378C48.802 49.926 48 52.056 48 54.73c0 2.675.802 4.805 2.407 6.39 1.607 1.584 3.775 2.379 6.508 2.379h12.164l-1.768-4.756Z" fill-rule="evenodd" data-name="Tracé 7"/></g></g></g></g></svg>